<svg width="18" height="25" viewBox="0 0 18 25" fill="none" xmlns="http://www.w3.org/2000/svg">
<path fill-rule="evenodd" clip-rule="evenodd" d="M8.81865 23.272C4.51153 23.272 0.833344 22.6018 0.833344 19.9175C0.833344 17.2333 4.48819 14.7554 8.81865 14.7554C13.1258 14.7554 16.8039 17.2093 16.8039 19.8935C16.8039 22.5767 13.1491 23.272 8.81865 23.272Z" stroke="#616161" stroke-width="1.5" stroke-linecap="round" stroke-linejoin="round"/>
<path fill-rule="evenodd" clip-rule="evenodd" d="M8.8102 11.0357C11.6367 11.0357 13.9276 8.7448 13.9276 5.91829C13.9276 3.09177 11.6367 0.799805 8.8102 0.799805C5.98368 0.799805 3.69171 3.09177 3.69171 5.91829C3.68217 8.73526 5.95717 11.0262 8.77414 11.0357C8.78686 11.0357 8.79853 11.0357 8.8102 11.0357Z" stroke="#616161" stroke-width="1.5" stroke-linecap="round" stroke-linejoin="round"/>
</svg>
