<svg width="20" height="25" viewBox="0 0 20 25" fill="none" xmlns="http://www.w3.org/2000/svg">
<path d="M7.2093 17.0187C7.2093 17.6559 6.79282 18.1725 6.27907 18.1725C5.76532 18.1725 5.34884 17.6559 5.34884 17.0187C5.34884 16.3814 5.76532 15.8649 6.27907 15.8649C6.79282 15.8649 7.2093 16.3814 7.2093 17.0187Z" fill="#9E9E9E"/>
<path d="M10.9302 17.0187C10.9302 17.6559 10.5138 18.1725 10 18.1725C9.48625 18.1725 9.06977 17.6559 9.06977 17.0187C9.06977 16.3814 9.48625 15.8649 10 15.8649C10.5138 15.8649 10.9302 16.3814 10.9302 17.0187Z" fill="#9E9E9E"/>
<path d="M13.7209 18.1725C14.2347 18.1725 14.6512 17.6559 14.6512 17.0187C14.6512 16.3814 14.2347 15.8649 13.7209 15.8649C13.2072 15.8649 12.7907 16.3814 12.7907 17.0187C12.7907 17.6559 13.2072 18.1725 13.7209 18.1725Z" fill="#9E9E9E"/>
<path fill-rule="evenodd" clip-rule="evenodd" d="M3.72093 7.7882V9.29135C3.50992 9.30975 3.31105 9.33371 3.12395 9.36491C2.28664 9.50454 1.58164 9.80325 1.02172 10.4977C0.461799 11.1922 0.220968 12.0667 0.108395 13.1052C-3.34548e-05 14.1055 -1.83033e-05 15.3774 4.93042e-07 16.9553V17.082C-1.83033e-05 18.6599 -3.34548e-05 19.9318 0.108395 20.9321C0.220968 21.9706 0.461799 22.8451 1.02172 23.5396C1.58164 24.2341 2.28664 24.5328 3.12395 24.6724C3.93043 24.8069 4.95585 24.8069 6.22803 24.8069H13.772C15.0441 24.8069 16.0696 24.8069 16.876 24.6724C17.7134 24.5328 18.4184 24.2341 18.9783 23.5396C19.5382 22.8451 19.779 21.9706 19.8916 20.9321C20 19.9318 20 18.6599 20 17.082V16.9554C20 15.3774 20 14.1055 19.8916 13.1052C19.779 12.0667 19.5382 11.1922 18.9783 10.4977C18.4184 9.80325 17.7134 9.50454 16.876 9.36491C16.689 9.33371 16.4901 9.30975 16.2791 9.29134V7.7882C16.2791 3.4869 13.4678 0 10 0C6.53217 0 3.72093 3.4869 3.72093 7.7882ZM10 1.73071C7.3028 1.73071 5.11628 4.44274 5.11628 7.7882V9.23444C5.46371 9.23045 5.83397 9.23045 6.2279 9.23046H13.772C14.1659 9.23045 14.5363 9.23045 14.8837 9.23444V7.7882C14.8837 4.44274 12.6972 1.73071 10 1.73071ZM3.30988 11.0802C2.6273 11.194 2.26584 11.4022 2.00838 11.7215C1.75093 12.0409 1.58307 12.4892 1.4913 13.3358C1.39683 14.2074 1.39535 15.3625 1.39535 17.0187C1.39535 18.6749 1.39683 19.83 1.4913 20.7015C1.58307 21.5481 1.75093 21.9965 2.00838 22.3158C2.26584 22.6351 2.6273 22.8433 3.30988 22.9571C4.01253 23.0743 4.9438 23.0762 6.27907 23.0762H13.7209C15.0562 23.0762 15.9875 23.0743 16.6901 22.9571C17.3727 22.8433 17.7342 22.6351 17.9916 22.3158C18.2491 21.9965 18.4169 21.5481 18.5087 20.7015C18.6032 19.83 18.6047 18.6749 18.6047 17.0187C18.6047 15.3625 18.6032 14.2074 18.5087 13.3358C18.4169 12.4892 18.2491 12.0409 17.9916 11.7215C17.7342 11.4022 17.3727 11.194 16.6901 11.0802C15.9875 10.963 15.0562 10.9612 13.7209 10.9612H6.27907C4.9438 10.9612 4.01253 10.963 3.30988 11.0802Z" fill="#9E9E9E"/>
</svg>
