<svg width="16" height="26" viewBox="0 0 16 26" fill="none" xmlns="http://www.w3.org/2000/svg">
<path fill-rule="evenodd" clip-rule="evenodd" d="M7.84455 24.8914C4.15273 24.8914 1 24.1789 1 21.3251C1 18.4713 4.13273 15.8369 7.84455 15.8369C11.5364 15.8369 14.6891 18.4458 14.6891 21.2996C14.6891 24.1522 11.5564 24.8914 7.84455 24.8914Z" stroke="#9E9E9E" stroke-width="1.5" stroke-linecap="round" stroke-linejoin="round"/>
<path fill-rule="evenodd" clip-rule="evenodd" d="M7.83731 11.8823C10.26 11.8823 12.2237 9.44674 12.2237 6.44172C12.2237 3.43671 10.26 1 7.83731 1C5.41458 1 3.45004 3.43671 3.45004 6.44172C3.44186 9.43659 5.39186 11.8722 7.8064 11.8823C7.81731 11.8823 7.82731 11.8823 7.83731 11.8823Z" stroke="#9E9E9E" stroke-width="1.5" stroke-linecap="round" stroke-linejoin="round"/>
</svg>
