<svg width="24" height="24" viewBox="0 0 24 24" fill="none" xmlns="http://www.w3.org/2000/svg">
<g clip-path="url(#clip0_40_636)">
<path d="M18.713 11.9998H14C13.4696 11.9998 12.9609 11.7891 12.5858 11.414C12.2107 11.0389 12 10.5302 12 9.9998V5.2738C12.0014 4.81378 11.8969 4.35961 11.6947 3.94641C11.4925 3.5332 11.198 3.17202 10.834 2.8908C10.489 2.61761 10.0859 2.42738 9.65571 2.33478C9.22552 2.24219 8.77981 2.24973 8.353 2.3568C5.92866 2.95861 3.78233 4.36986 2.26897 6.35716C0.755614 8.34446 -0.0341245 10.7888 0.0303609 13.2859C0.0948464 15.783 1.00969 18.1832 2.62361 20.0898C4.23752 21.9963 6.45383 23.2949 8.906 23.7708C11.6631 24.2985 14.5176 23.7522 16.885 22.2437C19.2524 20.7352 20.9536 18.3787 21.64 15.6568C21.7475 15.2294 21.7553 14.7831 21.6629 14.3522C21.5705 13.9214 21.3803 13.5175 21.107 13.1718C20.8224 12.8083 20.4592 12.5139 20.0446 12.3109C19.6299 12.1079 19.1747 12.0016 18.713 11.9998ZM19.701 15.1678C19.3181 16.7097 18.5326 18.1222 17.4247 19.2608C16.3168 20.3995 14.9263 21.2234 13.3955 21.6484C11.8647 22.0733 10.2485 22.0841 8.7122 21.6795C7.17589 21.2749 5.77462 20.4695 4.65171 19.3456C3.5288 18.2218 2.72455 16.8198 2.32122 15.2832C1.91789 13.7466 1.92997 12.1304 2.3562 10.5999C2.78243 9.06946 3.60753 7.67969 4.7471 6.57274C5.88667 5.4658 7.29982 4.68141 8.842 4.2998C8.97393 4.26684 9.11175 4.26523 9.24442 4.29509C9.37709 4.32496 9.50092 4.38548 9.606 4.4718C9.73009 4.56641 9.83072 4.68833 9.90009 4.8281C9.96946 4.96788 10.0057 5.12176 10.006 5.2778V9.9998C10.006 11.0607 10.4274 12.0781 11.1776 12.8282C11.9277 13.5784 12.9451 13.9998 14.006 13.9998H18.718C18.8754 14.0004 19.0306 14.0368 19.172 14.1061C19.3133 14.1753 19.4371 14.2758 19.534 14.3998C19.619 14.5063 19.6782 14.6311 19.707 14.7643C19.7358 14.8976 19.7344 15.0357 19.701 15.1678Z" fill="#616161"/>
<path d="M23.651 7.4459C23.1906 5.75337 22.2962 4.2104 21.0564 2.96967C19.8166 1.72895 18.2742 0.833486 16.582 0.371895C16.4046 0.324204 16.2217 0.299998 16.038 0.299895C15.7738 0.297385 15.5117 0.347263 15.2668 0.446648C15.022 0.546033 14.7992 0.692954 14.6115 0.878921C14.4238 1.06489 14.2747 1.28622 14.173 1.53011C14.0714 1.77401 14.019 2.03564 14.019 2.29989V6.9999C14.019 7.79554 14.3351 8.55861 14.8977 9.12122C15.4603 9.68382 16.2234 9.9999 17.019 9.9999H21.738C22.0467 9.99693 22.3505 9.92283 22.6259 9.78337C22.9013 9.64391 23.1408 9.44284 23.3259 9.19578C23.5109 8.94872 23.6365 8.66232 23.6929 8.35883C23.7493 8.05535 23.735 7.74294 23.651 7.4459ZM21.153 7.9999H17.015C16.7498 7.9999 16.4954 7.89454 16.3079 7.707C16.1204 7.51947 16.015 7.26511 16.015 6.9999L16.007 2.30689C16.0143 2.3016 16.023 2.29848 16.032 2.2979H16.058C17.4201 2.66898 18.6611 3.39081 19.657 4.39134C20.653 5.39187 21.3692 6.63611 21.734 7.9999H21.153Z" fill="#616161"/>
</g>
<defs>
<clipPath id="clip0_40_636">
<rect width="24" height="24" fill="white"/>
</clipPath>
</defs>
</svg>
