<svg width="25" height="34" viewBox="0 0 25 34" fill="none" xmlns="http://www.w3.org/2000/svg">
<path fill-rule="evenodd" clip-rule="evenodd" d="M4.27556 16H11.7253C14.4711 16 16 17.602 16 20.347V29.644C16 32.434 14.4711 34 11.7253 34H4.27556C1.57333 34 0 32.434 0 29.644V20.347C0 17.602 1.57333 16 4.27556 16ZM4.51555 20.194V20.185H7.17244C7.55555 20.185 7.86667 20.5 7.86667 20.8861C7.86667 21.283 7.55555 21.598 7.17244 21.598H4.51555C4.13244 21.598 3.82222 21.283 3.82222 20.896C3.82222 20.509 4.13244 20.194 4.51555 20.194ZM4.51555 25.666H11.4844C11.8667 25.666 12.1778 25.351 12.1778 24.964C12.1778 24.577 11.8667 24.2611 11.4844 24.2611H4.51555C4.13244 24.2611 3.82222 24.577 3.82222 24.964C3.82222 25.351 4.13244 25.666 4.51555 25.666ZM4.51555 29.779H11.4844C11.8391 29.743 12.1067 29.4361 12.1067 29.077C12.1067 28.708 11.8391 28.402 11.4844 28.366H4.51555C4.24889 28.339 3.99111 28.465 3.84889 28.699C3.70667 28.924 3.70667 29.221 3.84889 29.455C3.99111 29.68 4.24889 29.815 4.51555 29.779Z" fill="#F2C288"/>
<path d="M25 0C25 0 24.3581 3.63999 21.796 5.9839C21.0415 6.67484 20.12 7.25307 18.9992 7.5922C17.5426 8.03336 15.7498 8.07093 13.5481 7.42873C12.5623 7.14139 11.4946 6.71799 10.3395 6.13265L10.3524 6.12097C10.5985 5.90474 10.8636 5.70514 11.1453 5.52395C12.2438 4.80915 13.5641 4.3157 14.9687 3.98419C17.1285 3.47347 19.49 3.3425 21.5565 3.3694C16.9332 2.75664 10.8822 3.53947 8.71654 7.21703C6.69483 10.3062 8.21864 13.6802 8.37025 14C3.91563 5.28585 11.2208 1.46056 17.4258 1.6022C23.6308 1.74384 25 0 25 0Z" fill="#F2C288"/>
</svg>
