<svg width="29" height="36" viewBox="0 0 29 36" fill="none" xmlns="http://www.w3.org/2000/svg">
<path d="M29 0C29 0 28.3581 3.63999 25.796 5.9839C25.0415 6.67484 24.12 7.25307 22.9992 7.5922C21.5426 8.03336 19.7498 8.07093 17.5481 7.42873C16.5623 7.14139 15.4946 6.71799 14.3395 6.13265L14.3524 6.12097C14.5985 5.90474 14.8636 5.70514 15.1453 5.52395C16.2438 4.80915 17.5641 4.3157 18.9687 3.98419C21.1285 3.47347 23.49 3.3425 25.5565 3.3694C20.9332 2.75664 14.8822 3.53947 12.7165 7.21703C10.6948 10.3062 12.2186 13.6802 12.3702 14C7.91563 5.28585 15.2208 1.46056 21.4258 1.6022C27.6308 1.74384 29 0 29 0Z" fill="#F2C288"/>
<path d="M9.13478 32.7733V29.7156C9.13478 28.9351 9.77217 28.3023 10.5584 28.3023H13.4326C13.8102 28.3023 14.1723 28.4512 14.4393 28.7163C14.7063 28.9813 14.8563 29.3408 14.8563 29.7156V32.7733C14.8539 33.0978 14.9821 33.4099 15.2124 33.6402C15.4427 33.8705 15.7561 34 16.0829 34H18.0438C18.9596 34.0023 19.8388 33.6428 20.4872 33.0008C21.1356 32.3588 21.5 31.487 21.5 30.5778V21.8669C21.5 21.1325 21.1721 20.4358 20.6046 19.9647L13.934 14.6759C12.7737 13.7486 11.1111 13.7785 9.98539 14.747L3.46701 19.9647C2.87274 20.422 2.51755 21.1206 2.5 21.8669V30.5689C2.5 32.4639 4.04738 34 5.95617 34H7.87229C8.55123 34 9.103 33.4562 9.10792 32.7822L9.13478 32.7733Z" fill="#F2C288"/>
</svg>
