<svg id="Group_221" data-name="Group 221" xmlns="http://www.w3.org/2000/svg" width="147.343" height="87.623" viewBox="0 0 147.343 87.623">
  <path id="Path_311" data-name="Path 311" d="M73.143,92.3H43.764c.1-.312.187-.624.268-.962a18.951,18.951,0,0,0,.537-4.483,18.582,18.582,0,0,0-.687-5.033H73.024a18.776,18.776,0,0,0-.144,9.516c.075.325.169.624.262.962M23.5,62.1A39.063,39.063,0,0,1,19.63,51.62H5.269a5.239,5.239,0,0,0,0,10.478H11.95a49.329,49.329,0,0,0,4.471,8.536,18.62,18.62,0,0,1,9.429-2.541,12.294,12.294,0,0,1,1.73.081A39.45,39.45,0,0,1,23.52,62.1M126.093,18H89.69a5.314,5.314,0,0,0-.549,0,5.239,5.239,0,0,0,.549,10.453h5.62a39.732,39.732,0,0,1-5.994,39.713c.574-.05,1.149-.081,1.73-.081a18.6,18.6,0,0,1,9.429,2.541,50.253,50.253,0,0,0,5.938-42.173h14.536l15.96,20.393v32.95h-27.78a18.8,18.8,0,0,1-.119,10.478h38.364V45.233Z" transform="translate(-0.03 -17.989)" fill="#0477bd"/>
  <path id="Path_312" data-name="Path 312" d="M113.39,94.566a18.732,18.732,0,0,0-18.052-13.7,12.3,12.3,0,0,0-1.73.081A18.732,18.732,0,0,0,77.917,92.693a16.917,16.917,0,0,0-.624,1.873,18.776,18.776,0,0,0-.144,9.516c.075.325.169.624.262.962A18.741,18.741,0,0,0,113.4,94.566m-11.864,10.478a8.261,8.261,0,0,1-14.468-5.158c0-.094,0-.194,0-.287a8.267,8.267,0,0,1,8.274-8.261,8.08,8.08,0,0,1,2.591.418,8.255,8.255,0,0,1,3.622,13.281M48.145,94.566a18.3,18.3,0,0,0-.624-1.873h0a18.732,18.732,0,0,0-15.7-11.745c-.574-.05-1.149-.081-1.73-.081a18.732,18.732,0,1,0,17.933,24.209c.1-.318.187-.624.268-.962a18.876,18.876,0,0,0-.15-9.516m-9.8,5.32A8.261,8.261,0,1,1,27.5,91.8a8.08,8.08,0,0,1,2.591-.418,8.267,8.267,0,0,1,8.261,8.255c0,.094,0,.194,0,.287M84.374,60.43a10.729,10.729,0,1,1-.006-.031m-26.494,0a8.4,8.4,0,1,1,0-.006" transform="translate(-4.292 -30.763)" fill="#f09d05"/>
</svg>
