<svg width="104" height="123" viewBox="0 0 104 123" fill="none" xmlns="http://www.w3.org/2000/svg">
<path d="M98 71.6816C98.0082 77.907 96.7117 84.0663 94.1926 89.7692C91.6735 95.472 87.9868 100.594 83.3659 104.811C81.5979 101.994 78.8449 99.92 75.6324 98.9863C72.4199 98.0526 68.973 98.3241 65.9496 99.7491C62.9263 101.174 60.5383 103.653 59.2417 106.712C57.945 109.771 57.8304 113.196 58.9197 116.333C54.6592 116.928 50.3356 116.928 46.075 116.333C47.1682 113.195 47.056 109.767 45.7598 106.705C44.4636 103.643 42.0743 101.162 39.0487 99.7364C36.0232 98.3106 32.5735 98.0399 29.3593 98.9761C26.145 99.9123 23.3916 101.99 21.6254 104.811C13.6886 97.5436 8.62021 87.7141 7.32711 77.0816C6.03401 66.4491 8.60063 55.7075 14.5677 46.7791C20.1874 50.0091 26.0927 52.7241 32.2103 54.8904C29.8974 57.6002 28.164 60.7473 27.1151 64.1409C26.0662 67.5345 25.7237 71.1039 26.1083 74.6326C26.4929 78.1614 27.5967 81.5759 29.3527 84.6692C31.1087 87.7625 33.4803 90.4701 36.3237 92.6278C39.1671 94.7855 42.423 96.3483 45.8941 97.2215C49.3652 98.0948 52.9791 98.2602 56.5166 97.7077C60.0541 97.1553 63.4415 95.8965 66.4734 94.0077C69.5054 92.1189 72.1187 89.6395 74.1548 86.7197H52.3222V67.8182H97.8385C97.9484 69.0912 98 70.3813 98 71.6816Z" fill="white"/>
<path d="M82 111.785C81.9986 114.458 81.0683 117.039 79.3829 119.045C77.6975 121.052 75.3724 122.347 72.8419 122.689C70.3115 123.03 67.7489 122.395 65.633 120.902C63.5171 119.408 61.9926 117.159 61.3445 114.573C60.6963 111.988 60.9688 109.244 62.1111 106.854C63.2534 104.464 65.1872 102.592 67.5513 101.587C69.9154 100.581 72.5479 100.512 74.957 101.392C77.3661 102.272 79.387 104.041 80.642 106.368C81.5329 108.021 82.0007 109.887 82 111.785Z" fill="white"/>
<path d="M43.9998 111.779C43.9998 113.955 43.3547 116.081 42.146 117.89C40.9373 119.699 39.2194 121.109 37.2094 121.942C35.1994 122.774 32.9877 122.992 30.8539 122.568C28.7202 122.143 26.7602 121.096 25.2218 119.557C23.6834 118.019 22.6358 116.059 22.2114 113.925C21.7869 111.791 22.0048 109.58 22.8373 107.57C23.6699 105.56 25.0798 103.842 26.8887 102.633C28.6976 101.424 30.8244 100.779 32.9999 100.779C34.4466 100.771 35.8806 101.051 37.2187 101.601C38.5568 102.151 39.7725 102.961 40.7955 103.984C41.8185 105.007 42.6284 106.222 43.1785 107.56C43.7285 108.899 44.0077 110.332 43.9998 111.779Z" fill="white"/>
<path d="M104 0.779053C104 0.779053 100.292 24.959 85.4883 40.5292C81.1288 45.119 75.8046 48.9602 69.3284 51.2129C60.9128 54.1435 50.5543 54.3931 37.8337 50.127C32.138 48.2183 25.9686 45.4057 19.2947 41.5174L19.3697 41.4398C20.7915 40.0034 22.323 38.6775 23.9507 37.4739C30.2974 32.7256 37.9257 29.4476 46.0414 27.2455C58.52 23.8528 72.1644 22.9828 84.1044 23.1615C57.3918 19.0911 22.4305 24.2913 9.9178 48.7207C-1.76322 69.2417 7.04101 91.6545 7.917 93.7791C-17.8208 35.8922 24.387 10.4814 60.2379 11.4223C96.0888 12.3632 104 0.779053 104 0.779053Z" fill="#F2C288"/>
</svg>
