<svg xmlns="http://www.w3.org/2000/svg" width="267.626" height="92.598" viewBox="0 0 267.626 92.598">
  <g id="Layer_2" data-name="Layer 2" transform="translate(-0.03)">
    <g id="Layer_1" data-name="Layer 1" transform="translate(0.03)">
      <path id="Path_306" data-name="Path 306" d="M376.716,154a5.1,5.1,0,0,0-5.136,5.137,5.031,5.031,0,0,0,1.509,3.688,4.981,4.981,0,0,0,3.642,1.509,5.2,5.2,0,0,0,3.733-1.509A5.031,5.031,0,0,0,382,159.136a4.965,4.965,0,0,0-1.544-3.688A5.262,5.262,0,0,0,376.731,154" transform="translate(-184.658 -76.524)" fill="#f9fcfe"/>
      <path id="Path_307" data-name="Path 307" d="M317.767,50.318a71.381,71.381,0,0,0-10.927.76l-.191.03v7.013l.252-.035a78.33,78.33,0,0,1,10.152-.619c7.194,0,12.4,1.685,15.46,5.031,2.863,3.109,4.316,8.286,4.316,15.329a85.342,85.342,0,0,1-.6,9.151H289.081V56.592h-8.844V95.1c0,5.635-1.077,9.715-3.2,12.134-1.851,2.168-4.8,3.27-8.759,3.27a26.447,26.447,0,0,1-9.161-1.55l-.267-.1-.956,7.446.191.05a38.406,38.406,0,0,0,9.559,1.253c14.222,0,21.431-7.823,21.431-23.258v-.226h55.037l.03-.186a102.023,102.023,0,0,0,1.479-16.778c0-8.95-2.138-15.671-6.359-19.983-4.457-4.528-11.692-6.852-21.5-6.852" transform="translate(-128.165 -25.003)" fill="#f9fcfe"/>
      <path id="Path_308" data-name="Path 308" d="M485.574,25.657a4.422,4.422,0,0,0-4.417,4.422V61.955H456.314V4.422a4.422,4.422,0,0,0-8.844,0v64.7H490V30.095a4.427,4.427,0,0,0-4.422-4.437" transform="translate(-222.37)" fill="#f9fcfe"/>
      <path id="Path_309" data-name="Path 309" d="M479.255,50.811h.035a5.055,5.055,0,0,0,3.582-8.643,4.875,4.875,0,0,0-3.552-1.509,5.091,5.091,0,0,0-3.733,1.509,4.91,4.91,0,0,0-1.449,3.6,4.774,4.774,0,0,0,1.509,3.557,5.126,5.126,0,0,0,3.637,1.509" transform="translate(-235.621 -20.203)" fill="#f9fcfe"/>
      <path id="Path_310" data-name="Path 310" d="M485,67.971a4.784,4.784,0,0,0,1.509,3.557,5.222,5.222,0,0,0,3.683,1.4,5.111,5.111,0,0,0,3.6-1.4,4.864,4.864,0,0,0,1.449-3.552,5,5,0,0,0-1.509-3.642,4.815,4.815,0,0,0-3.557-1.539A5.1,5.1,0,0,0,485,67.971" transform="translate(-241.019 -31.201)" fill="#f9fcfe"/>
      <path id="Path_311" data-name="Path 311" d="M58.936,77.861H35.266c.08-.252.151-.5.216-.775a15.268,15.268,0,0,0,.433-3.612,14.971,14.971,0,0,0-.553-4.055H58.841a15.128,15.128,0,0,0-.116,7.667c.06.262.136.5.211.775m-40-24.334a31.473,31.473,0,0,1-3.119-8.442H4.251a4.221,4.221,0,0,0,0,8.442H9.634a39.744,39.744,0,0,0,3.6,6.877,15,15,0,0,1,7.6-2.048,9.906,9.906,0,0,1,1.394.065,31.785,31.785,0,0,1-3.27-4.9M101.6,17.994H72.268a4.28,4.28,0,0,0-.443,0,4.221,4.221,0,0,0,.443,8.422H76.8a32.011,32.011,0,0,1-4.83,32c.463-.04.926-.065,1.394-.065a14.987,14.987,0,0,1,7.6,2.048A40.488,40.488,0,0,0,85.74,26.416H97.452l12.859,16.431V69.394H87.929a15.143,15.143,0,0,1-.1,8.442h30.91v-37.9Z" transform="translate(-0.03 -8.939)" fill="#f9fcfe"/>
      <path id="Path_312" data-name="Path 312" d="M93.568,86.3A15.093,15.093,0,0,0,79.024,75.258a9.906,9.906,0,0,0-1.394.065,15.093,15.093,0,0,0-12.643,9.463,13.63,13.63,0,0,0-.5,1.509,15.128,15.128,0,0,0-.116,7.667c.06.262.136.5.211.775A15.1,15.1,0,0,0,93.573,86.3m-9.559,8.442a6.656,6.656,0,0,1-11.656-4.155c0-.075,0-.156,0-.231a6.661,6.661,0,0,1,6.666-6.656,6.51,6.51,0,0,1,2.088.337,6.651,6.651,0,0,1,2.918,10.7M41,86.3a14.74,14.74,0,0,0-.5-1.509h0A15.093,15.093,0,0,0,27.85,75.323c-.463-.04-.926-.065-1.394-.065a15.093,15.093,0,1,0,14.449,19.5c.08-.257.151-.5.216-.775A15.208,15.208,0,0,0,41,86.32m-7.893,4.286a6.656,6.656,0,1,1-8.739-6.54,6.51,6.51,0,0,1,2.088-.337,6.661,6.661,0,0,1,6.656,6.651c0,.075,0,.156,0,.231M70.19,58.792a8.646,8.646,0,1,1-.005-.025m-21.346,0a6.769,6.769,0,1,1,0-.005" transform="translate(-5.669 -25.84)" fill="#f09d05"/>
    </g>
  </g>
</svg>
