<svg width="312" height="73" viewBox="0 0 312 73" fill="none" xmlns="http://www.w3.org/2000/svg">
<path d="M41.2744 15.7429C40.0264 13.2985 38.0555 11.2796 35.6189 9.94978C33.2077 8.64453 30.4181 7.9919 27.2501 7.9919C23.7829 7.9919 20.6912 8.75857 17.9749 10.2919C15.2626 11.8197 13.0529 14.0763 11.6067 16.7952C10.0735 19.6031 9.30694 22.8547 9.30694 26.55C9.30694 30.2454 10.0735 33.5094 11.6067 36.3423C13.0432 39.0776 15.2544 41.3486 17.9749 42.8829C20.6912 44.4162 23.7829 45.1829 27.2501 45.1829C31.9259 45.1829 35.7206 43.9026 38.6344 41.3419C41.5482 38.7812 43.3326 35.3082 43.9877 30.9229H24.3109V24.1667H53.1867V30.7418C52.3531 36.8836 49.2551 42.5141 44.4771 46.5711C39.6991 50.6281 33.5714 52.831 27.2501 52.7643C22.5301 52.8153 17.8784 51.6557 13.7568 49.4005C9.72885 47.198 6.38398 43.9684 4.07681 40.0539C1.68907 36.0634 0.495209 31.5592 0.495209 26.5414C0.495209 21.5236 1.68907 17.0194 4.07681 13.0289C6.3952 9.10713 9.75729 5.8765 13.8037 3.68228C17.9168 1.43776 22.5545 0.279607 27.2619 0.321405C32.8411 0.321405 37.8043 1.66307 42.1515 4.34641C46.4987 7.02974 49.653 10.8362 51.6144 15.7659L41.2744 15.7429Z" fill="#F8F8F8"/>
<path d="M68.0851 50.3638C64.939 48.6343 62.3523 46.0731 60.6197 42.9722C58.8108 39.7944 57.9064 36.1125 57.9064 31.9265C57.9064 27.7865 58.8363 24.1161 60.696 20.9152C62.4732 17.7936 65.1179 15.2304 68.3227 13.5236C71.6524 11.8255 75.3506 10.939 79.1041 10.939C82.8576 10.939 86.5558 11.8255 89.8856 13.5236C93.0897 15.2311 95.7342 17.7941 97.5123 20.9152C99.372 24.118 100.302 27.7884 100.302 31.9265C100.302 36.0646 99.3466 39.734 97.436 42.9348C95.5914 46.0748 92.8891 48.6477 89.6333 50.3638C86.2859 52.1253 82.538 53.0273 78.7389 52.9858C75.0147 53.0409 71.341 52.1368 68.0851 50.3638ZM84.9341 44.1193C86.9224 43.0339 88.5566 41.4192 89.648 39.4618C90.8604 37.3957 91.4667 34.8839 91.4667 31.9265C91.4667 28.969 90.8888 26.4688 89.7331 24.4256C88.6814 22.4867 87.0853 20.8836 85.1336 19.8055C83.2428 18.7757 81.1132 18.241 78.9501 18.253C76.7988 18.2378 74.6806 18.7729 72.8048 19.8055C70.8807 20.8821 69.3212 22.4885 68.3197 24.4256C67.2148 26.4707 66.6614 28.971 66.6595 31.9265C66.6595 36.3118 67.8035 39.6986 70.0915 42.0867C72.3795 44.4749 75.2571 45.669 78.7243 45.669C80.8948 45.6767 83.0316 45.1434 84.9341 44.1193Z" fill="#F8F8F8"/>
<path d="M132.827 12.8252C135.314 14.0826 137.262 15.6466 138.67 17.5172V10.9392H147.341V52.9861C147.341 56.7294 146.536 60.0672 144.927 62.9997C143.332 65.9117 140.91 68.3083 137.954 69.8997C134.911 71.573 131.28 72.4106 127.06 72.4125C121.43 72.4125 116.755 71.1187 113.035 68.5312C109.316 65.9437 107.205 62.4343 106.702 58.003H115.209C115.862 60.1113 117.258 61.8229 119.395 63.1377C121.532 64.4526 124.083 65.1052 127.048 65.0956C130.515 65.0956 133.318 64.0616 135.455 61.9935C137.592 59.9254 138.66 56.92 138.658 52.9775V46.1752C137.077 48.2007 135.055 49.8547 132.739 51.0167C130.123 52.3523 127.208 53.0253 124.258 52.9746C120.76 53.0089 117.324 52.0741 114.344 50.2779C111.322 48.448 108.871 45.8405 107.257 42.7396C105.53 39.5215 104.667 35.8674 104.667 31.7772C104.667 27.6871 105.534 24.0665 107.269 20.9155C108.887 17.8746 111.334 15.3327 114.337 13.5718C117.34 11.8108 120.783 10.8996 124.282 10.9392C127.489 10.9392 130.337 11.5679 132.827 12.8252ZM136.898 24.6127C135.822 22.6507 134.218 21.0151 132.261 19.8833C130.386 18.8075 128.252 18.2446 126.08 18.2532C123.868 18.2345 121.693 18.8057 119.787 19.9057C117.88 21.0057 116.315 22.593 115.259 24.4977C114.086 26.5447 113.499 28.9712 113.499 31.7772C113.499 34.5832 114.086 37.0461 115.259 39.166C116.332 41.172 117.95 42.8477 119.935 44.0075C121.792 45.0956 123.916 45.6699 126.08 45.6692C128.251 45.6797 130.386 45.1188 132.261 44.0449C134.226 42.9049 135.831 41.2541 136.898 39.2752C138.071 37.1822 138.658 34.7318 138.658 31.9238C138.658 29.1159 138.071 26.6789 136.898 24.6127Z" fill="#F8F8F8"/>
<path d="M170.315 12.6755C172.399 11.5255 174.874 10.9505 177.739 10.9505V19.6703H175.554C172.186 19.6703 169.635 20.5079 167.901 22.1831C166.166 23.8583 165.299 26.7649 165.299 30.903V52.9973H156.704V10.939H165.299V17.5141C166.505 15.4954 168.236 13.8259 170.315 12.6755Z" fill="#F8F8F8"/>
<path d="M221.003 35.1032H189.261C189.509 38.3616 190.74 40.9721 192.954 42.9347C195.168 44.8974 197.882 45.8816 201.097 45.8874C205.722 45.8874 208.99 43.9908 210.9 40.1977H220.173C218.951 43.8959 216.562 47.1177 213.35 49.3977C210.058 51.7897 205.974 52.9848 201.097 52.9829C197.125 52.9829 193.569 52.1089 190.429 50.3609C187.305 48.6278 184.743 46.0657 183.039 42.9692C181.256 39.7914 180.364 36.1095 180.364 31.9235C180.364 27.7375 181.232 24.0546 182.966 20.8749C184.62 17.7773 187.162 15.2211 190.279 13.5206C193.421 11.7956 197.028 10.9331 201.097 10.9331C205.02 10.9331 208.513 11.7707 211.578 13.4459C214.603 15.0807 217.088 17.5285 218.741 20.5011C220.448 23.5314 221.303 27.0168 221.305 30.9575C221.315 32.345 221.214 33.7312 221.003 35.1032ZM212.32 28.3039C212.271 25.2008 211.14 22.7091 208.926 20.8289C206.712 18.9486 203.975 18.0123 200.713 18.02C197.903 17.9592 195.176 18.9503 193.086 20.7915C190.974 22.6392 189.718 25.1394 189.317 28.2924L212.32 28.3039Z" fill="#F8F8F8"/>
<path d="M266.337 35.1032H234.596C234.848 38.3616 236.08 40.9721 238.292 42.9347C240.503 44.8974 243.218 45.8816 246.435 45.8874C251.058 45.8874 254.324 43.9908 256.235 40.1977H265.51C264.286 43.8955 261.896 47.117 258.684 49.3977C255.393 51.7897 251.31 52.9848 246.435 52.9829C242.463 52.9829 238.907 52.1089 235.766 50.3609C232.642 48.6278 230.081 46.0657 228.377 42.9692C226.592 39.7914 225.699 36.1095 225.699 31.9235C225.699 27.7375 226.566 24.0546 228.301 20.8749C229.955 17.7773 232.497 15.2211 235.614 13.5206C238.756 11.7956 242.363 10.9331 246.435 10.9331C250.346 10.9331 253.838 11.7707 256.913 13.4459C259.937 15.0807 262.423 17.5285 264.076 20.5011C265.785 23.5314 266.639 27.0168 266.639 30.9575C266.651 32.3451 266.55 33.7314 266.337 35.1032ZM257.666 28.3039C257.616 25.2008 256.485 22.7091 254.275 20.8289C252.066 18.9486 249.328 18.0123 246.062 18.02C243.253 17.9598 240.526 18.9508 238.435 20.7915C236.323 22.6392 235.067 25.1394 234.666 28.2924L257.666 28.3039Z" fill="#F8F8F8"/>
<path d="M303.253 12.934C305.838 14.2591 307.954 16.3197 309.322 18.845C310.779 21.4574 311.509 24.6104 311.511 28.3038V52.9856H302.989V29.5601C302.989 25.9185 302.059 23.123 300.2 21.1738C298.34 19.2245 295.798 18.2509 292.573 18.2528C289.356 18.2528 286.805 19.2264 284.92 21.1738C283.035 23.1211 282.092 25.9166 282.092 29.5601V52.9856H273.498V10.9388H282.092V16.2575C283.546 14.5509 285.395 13.2085 287.484 12.3418C289.684 11.4042 292.06 10.9264 294.459 10.9388C297.513 10.887 300.533 11.5722 303.253 12.934Z" fill="#F8F8F8"/>
</svg>
