<svg width="52" height="52" viewBox="0 0 52 52" fill="none" xmlns="http://www.w3.org/2000/svg">
<rect width="52" height="52" rx="26" fill="#1BAC4B" fill-opacity="0.08"/>
<rect x="8" y="8" width="36" height="36" rx="18" fill="url(#paint0_linear_15_3633)"/>
<path fill-rule="evenodd" clip-rule="evenodd" d="M18.9166 24.5981C18.9166 20.7649 22.1199 17.6666 25.9945 17.6666C29.8801 17.6666 33.0833 20.7649 33.0833 24.5981C33.0833 26.5297 32.3808 28.323 31.2245 29.8429C29.949 31.5196 28.3768 32.9803 26.6071 34.127C26.2021 34.392 25.8365 34.412 25.392 34.127C23.6122 32.9803 22.04 31.5196 20.7754 29.8429C19.6183 28.323 18.9166 26.5297 18.9166 24.5981ZM23.6618 24.8139C23.6618 26.098 24.7097 27.108 25.9945 27.108C27.2802 27.108 28.3381 26.098 28.3381 24.8139C28.3381 23.5398 27.2802 22.4807 25.9945 22.4807C24.7097 22.4807 23.6618 23.5398 23.6618 24.8139Z" fill="white"/>
<defs>
<linearGradient id="paint0_linear_15_3633" x1="44" y1="44" x2="1.16323" y2="31.5799" gradientUnits="userSpaceOnUse">
<stop stop-color="#1C5948"/>
<stop offset="1" stop-color="#378C74" stop-opacity="0.4"/>
</linearGradient>
</defs>
</svg>
