<svg width="48" height="48" viewBox="0 0 48 48" fill="none" xmlns="http://www.w3.org/2000/svg">
<rect x="0.5" y="0.5" width="47" height="47" rx="23.5" stroke="#EEEEEE"/>
<path fill-rule="evenodd" clip-rule="evenodd" d="M23.5833 16.2916C19.5563 16.2916 16.2917 19.5562 16.2917 23.5833C16.2917 27.6104 19.5563 30.875 23.5833 30.875C27.6104 30.875 30.875 27.6104 30.875 23.5833C30.875 19.5562 27.6104 16.2916 23.5833 16.2916ZM15.0417 23.5833C15.0417 18.8659 18.8659 15.0416 23.5833 15.0416C28.3008 15.0416 32.125 18.8659 32.125 23.5833C32.125 25.7171 31.3426 27.6681 30.0491 29.1651L32.7753 31.8914C33.0194 32.1354 33.0194 32.5312 32.7753 32.7752C32.5312 33.0193 32.1355 33.0193 31.8914 32.7752L29.1652 30.049C27.6681 31.3426 25.7171 32.125 23.5833 32.125C18.8659 32.125 15.0417 28.3007 15.0417 23.5833Z" fill="white"/>
</svg>
