<svg id="Group_3962" data-name="Group 3962" xmlns="http://www.w3.org/2000/svg" width="24" height="24" viewBox="0 0 24 24">
    <path id="Path_10195" data-name="Path 10195" d="M0,0H24V24H0Z" fill="none"/>
    <path id="Path_10196" data-name="Path 10196" d="M16.555,3.843l3.6,3.6a2.877,2.877,0,0,1,0,4.069l-2.643,2.643a2.877,2.877,0,0,1-4.069,0l-.3-.3L6.586,20.414a2,2,0,0,1-1.239.578L5.172,21H4a1,1,0,0,1-.993-.883L3,20V18.828a2,2,0,0,1,.467-1.284l.119-.13L4,17H6V15H8V13l2.144-2.144-.3-.3a2.877,2.877,0,0,1,0-4.069l2.643-2.643a2.877,2.877,0,0,1,4.069,0Z" fill="none" stroke="#0477bd" stroke-linecap="round" stroke-linejoin="round" stroke-width="2"/>
    <path id="Path_10197" data-name="Path 10197" d="M15,9h.01" fill="none" stroke="#0477bd" stroke-linecap="round" stroke-linejoin="round" stroke-width="2" opacity="0.34"/>
</svg>
