<svg width="20" height="20" viewBox="0 0 20 20" fill="none" xmlns="http://www.w3.org/2000/svg">
<path fill-rule="evenodd" clip-rule="evenodd" d="M2.70834 8.4527C2.70834 4.37019 5.96251 1.04163 10 1.04163C14.0375 1.04163 17.2917 4.37019 17.2917 8.4527C17.2917 10.4236 16.73 12.5399 15.737 14.3682C14.7453 16.1942 13.2964 17.781 11.4838 18.6282C10.5421 19.0683 9.45786 19.0683 8.51624 18.6282C6.70364 17.781 5.25468 16.1942 4.26297 14.3682C3.27003 12.5399 2.70834 10.4236 2.70834 8.4527ZM10 2.29163C6.6737 2.29163 3.95834 5.03953 3.95834 8.4527C3.95834 10.2003 4.46053 12.1128 5.36142 13.7716C6.26354 15.4327 7.53835 16.7913 9.04554 17.4958C9.65171 17.7791 10.3483 17.7791 10.9545 17.4958C12.4617 16.7913 13.7365 15.4327 14.6386 13.7716C15.5395 12.1128 16.0417 10.2003 16.0417 8.4527C16.0417 5.03953 13.3263 2.29163 10 2.29163ZM10 6.45829C8.96447 6.45829 8.125 7.29776 8.125 8.33329C8.125 9.36883 8.96447 10.2083 10 10.2083C11.0355 10.2083 11.875 9.36883 11.875 8.33329C11.875 7.29776 11.0355 6.45829 10 6.45829ZM6.875 8.33329C6.875 6.6074 8.27411 5.20829 10 5.20829C11.7259 5.20829 13.125 6.6074 13.125 8.33329C13.125 10.0592 11.7259 11.4583 10 11.4583C8.27411 11.4583 6.875 10.0592 6.875 8.33329Z" fill="white"/>
</svg>
