<svg width="18" height="18" viewBox="0 0 18 18" fill="none" xmlns="http://www.w3.org/2000/svg">
<g clip-path="url(#clip0_1_599)">
<path d="M6.75 9C9.23175 9 11.25 6.98175 11.25 4.5C11.25 2.01825 9.23175 0 6.75 0C4.26825 0 2.25 2.01825 2.25 4.5C2.25 6.98175 4.26825 9 6.75 9ZM6.75 0.75C8.81775 0.75 10.5 2.43225 10.5 4.5C10.5 6.56775 8.81775 8.25 6.75 8.25C4.68225 8.25 3 6.56775 3 4.5C3 2.43225 4.68225 0.75 6.75 0.75ZM7.875 10.875C7.875 11.082 7.707 11.25 7.5 11.25H7.125C3.60975 11.25 0.75 14.1097 0.75 17.625C0.75 17.832 0.582 18 0.375 18C0.168 18 0 17.832 0 17.625C0 13.6965 3.1965 10.5 7.125 10.5H7.5C7.707 10.5 7.875 10.668 7.875 10.875ZM17.9355 12.5693C17.7832 12.1515 17.382 11.871 16.9373 11.871H15.1388L14.4967 10.0665C14.3423 9.65325 13.9425 9.375 13.5007 9.375C13.059 9.375 12.6592 9.65325 12.5033 10.0717L11.8628 11.871H10.0642C9.62025 11.871 9.21975 12.1507 9.06675 12.5662C8.913 12.9832 9.0375 13.4565 9.3825 13.7482L10.8165 14.9152L10.2487 16.6193C10.1145 17.049 10.266 17.5192 10.626 17.7878C10.8083 17.925 11.0347 18 11.2628 18C11.4742 18 11.679 17.9377 11.8538 17.8207L13.5098 16.7122L15.1957 17.8102C15.5737 18.0548 16.0658 18.036 16.425 17.7615C16.782 17.4862 16.926 17.0145 16.7828 16.5795L16.197 14.9093L17.6243 13.7467C17.964 13.4602 18.09 12.987 17.9377 12.57L17.9355 12.5693ZM17.1435 13.1685L15.5167 14.4938C15.3937 14.5935 15.3465 14.7593 15.3998 14.9085L16.071 16.821C16.113 16.947 16.071 17.0865 15.966 17.166C15.8588 17.247 15.714 17.253 15.603 17.181L13.71 15.948C13.5848 15.8663 13.422 15.8678 13.2968 15.9503L11.4352 17.1968C11.328 17.268 11.1788 17.2658 11.0753 17.1863C10.9688 17.1075 10.9245 16.9688 10.9627 16.848L11.6093 14.9047C11.658 14.757 11.6108 14.5935 11.49 14.496L9.861 13.1708C9.762 13.0868 9.72525 12.948 9.771 12.825C9.816 12.702 9.93375 12.6202 10.0642 12.6202H12.1275C12.2865 12.6202 12.4275 12.5205 12.4808 12.3713L13.209 10.3275C13.2997 10.0838 13.7055 10.089 13.7933 10.3222L14.523 12.3705C14.5755 12.5197 14.7172 12.6195 14.8762 12.6195H16.9395C17.0708 12.6195 17.1885 12.702 17.2335 12.825C17.2785 12.948 17.241 13.0875 17.1465 13.1677L17.1435 13.1685Z" fill="#1C5948"/>
</g>
<defs>
<clipPath id="clip0_1_599">
<rect width="18" height="18" fill="white"/>
</clipPath>
</defs>
</svg>
