<svg width="18" height="18" viewBox="0 0 18 18" fill="none" xmlns="http://www.w3.org/2000/svg">
<g clip-path="url(#clip0_1_509)">
<path d="M15.75 10.5C15.75 9.67275 15.0773 9 14.25 9H12.75C11.9227 9 11.25 9.67275 11.25 10.5C10.0095 10.5 9 11.5095 9 12.75V15.75C9 16.9905 10.0095 18 11.25 18H15.75C16.9905 18 18 16.9905 18 15.75V12.75C18 11.5095 16.9905 10.5 15.75 10.5ZM12.75 9.75H14.25C14.664 9.75 15 10.086 15 10.5H12C12 10.086 12.336 9.75 12.75 9.75ZM11.25 11.25H15.75C16.5772 11.25 17.25 11.9227 17.25 12.75V13.5H9.75V12.75C9.75 11.9227 10.4227 11.25 11.25 11.25ZM15.75 17.25H11.25C10.4227 17.25 9.75 16.5772 9.75 15.75V14.25H13.125V15.375C13.125 15.582 13.293 15.75 13.5 15.75C13.707 15.75 13.875 15.582 13.875 15.375V14.25H17.25V15.75C17.25 16.5772 16.5772 17.25 15.75 17.25ZM7.5 17.625C7.5 17.832 7.332 18 7.125 18H3.375C1.51425 18 0 16.4858 0 14.625V3.375C0 1.51425 1.51425 0 3.375 0H8.625C10.4858 0 12 1.51425 12 3.375V7.125C12 7.332 11.832 7.5 11.625 7.5C11.418 7.5 11.25 7.332 11.25 7.125V3.375C11.25 1.9275 10.0725 0.75 8.625 0.75H3.375C1.9275 0.75 0.75 1.9275 0.75 3.375V14.625C0.75 16.0725 1.9275 17.25 3.375 17.25H7.125C7.332 17.25 7.5 17.418 7.5 17.625ZM5.25 10.125C5.25 10.332 5.082 10.5 4.875 10.5H3.375C3.168 10.5 3 10.332 3 10.125C3 9.918 3.168 9.75 3.375 9.75H4.875C5.082 9.75 5.25 9.918 5.25 10.125ZM9 10.125C9 10.332 8.832 10.5 8.625 10.5H7.125C6.918 10.5 6.75 10.332 6.75 10.125C6.75 9.918 6.918 9.75 7.125 9.75H8.625C8.832 9.75 9 9.918 9 10.125ZM5.25 13.125C5.25 13.332 5.082 13.5 4.875 13.5H3.375C3.168 13.5 3 13.332 3 13.125C3 12.918 3.168 12.75 3.375 12.75H4.875C5.082 12.75 5.25 12.918 5.25 13.125ZM5.25 4.125C5.25 4.332 5.082 4.5 4.875 4.5H3.375C3.168 4.5 3 4.332 3 4.125C3 3.918 3.168 3.75 3.375 3.75H4.875C5.082 3.75 5.25 3.918 5.25 4.125ZM9 4.125C9 4.332 8.832 4.5 8.625 4.5H7.125C6.918 4.5 6.75 4.332 6.75 4.125C6.75 3.918 6.918 3.75 7.125 3.75H8.625C8.832 3.75 9 3.918 9 4.125ZM5.25 7.125C5.25 7.332 5.082 7.5 4.875 7.5H3.375C3.168 7.5 3 7.332 3 7.125C3 6.918 3.168 6.75 3.375 6.75H4.875C5.082 6.75 5.25 6.918 5.25 7.125ZM9 7.125C9 7.332 8.832 7.5 8.625 7.5H7.125C6.918 7.5 6.75 7.332 6.75 7.125C6.75 6.918 6.918 6.75 7.125 6.75H8.625C8.832 6.75 9 6.918 9 7.125Z" fill="#1C5948"/>
</g>
<defs>
<clipPath id="clip0_1_509">
<rect width="18" height="18" fill="white"/>
</clipPath>
</defs>
</svg>
