<svg xmlns="http://www.w3.org/2000/svg" width="16" height="16" viewBox="0 0 16 16">
  <g id="_star" data-name=" star" transform="translate(-108 -188)">
    <g id="star" transform="translate(108 188)">
      <path id="Vector" d="M7.038.855l1.056,2.1a1.3,1.3,0,0,0,.852.627L10.86,3.9c1.224.2,1.512,1.086.63,1.957L10,7.335a1.291,1.291,0,0,0-.312,1.08l.426,1.832c.336,1.45-.438,2.011-1.728,1.253L6.594,10.444a1.3,1.3,0,0,0-1.188,0L3.612,11.5c-1.284.758-2.064.191-1.728-1.253L2.31,8.416A1.291,1.291,0,0,0,2,7.335L.509,5.856C-.367,4.984-.085,4.1,1.139,3.9l1.914-.316A1.306,1.306,0,0,0,3.9,2.955L4.956.855C5.532-.285,6.468-.285,7.038.855Z" transform="translate(2.001 2.077)" fill="none" stroke="#f09d05" stroke-linecap="round" stroke-linejoin="round" stroke-width="1.5"/>
      <g id="Vector-2" data-name="Vector" fill="none" opacity="0">
        <path d="M0,0H16V16H0Z" stroke="none"/>
        <path d="M 1 1 L 1 15 L 15 15 L 15 1 L 1 1 M 0 0 L 16 0 L 16 16 L 0 16 L 0 0 Z" stroke="none" fill="#f09d05"/>
      </g>
    </g>
  </g>
</svg>
